<?xml version="1.0" encoding="UTF-8" standalone="no"?>
<svg
  xmlns:dc="http://purl.org/dc/elements/1.1/"
  xmlns:cc="http://creativecommons.org/ns#"
  xmlns:rdf="http://www.w3.org/1999/02/22-rdf-syntax-ns#"
  xmlns:svg="http://www.w3.org/2000/svg"
  xmlns="http://www.w3.org/2000/svg"
  viewBox="0 0 765 990"
  height="990"
  width="765"
  xml:space="preserve"
  version="1.1"
  id="svg4155">
  <defs id="defs4159">
    <clipPath id="clipPath4169" clipPathUnits="userSpaceOnUse"><path id="path4171" d="M 0,792 612,792 612,0 0,0 0,792 Z"/></clipPath>
  </defs>
  <g transform="matrix(1.25,0,0,-1.25,0,990)" id="g4163">
    <g id="g4165">
      <g clip-path="url(#clipPath4169)" id="g4167">
        <g transform="translate(540.2949,503.8911)" id="g4173">
          <path
            id="path4175"
            style="fill:#ffffff;fill-opacity:1;fill-rule:evenodd;stroke:none"
            d="m 0,0 c 0,-132.483 -107.398,-239.881 -239.88,-239.881 -132.483,0 -239.881,107.398 -239.881,239.881 0,132.482 107.398,239.88 239.881,239.88 C -107.398,239.88 0,132.482 0,0"/></g>
        <g transform="translate(121.1963,547)" id="g4177"><path
          id="path4179"
          style="fill:#231f20;fill-opacity:1;fill-rule:evenodd;stroke:none"
          d="m 0,0 0,-33.089 c 0.473,-0.183 0.945,-0.367 1.417,-0.55 5.092,3.872 9.959,8.099 15.348,11.501 4.12,2.6 8.737,4.862 13.44,5.946 3.547,0.817 4.76,2.477 5.118,5.435 0.995,8.23 2.625,16.476 2.622,24.715 -0.006,18.916 4.155,38.022 0.274,56.678 -4.634,22.278 1.153,43.755 2.341,65.575 0.428,7.847 4.912,13 11.995,14.339 1.329,-5.372 3.114,-10.725 3.908,-16.224 1.355,-9.377 2.065,-18.846 3.085,-28.272 1.004,-9.287 0.455,-18.311 -1.152,-27.66 -1.66,-9.657 -0.343,-19.872 0.071,-29.826 0.45,-10.806 1.304,-21.596 2.092,-32.384 0.568,-7.792 1.606,-15.56 1.906,-23.359 0.336,-8.762 0.077,-17.547 0.077,-26.691 2.111,-0.306 4.006,-0.582 6.46,-0.938 l 0,-22.378 c 0.283,0.086 0.557,0.097 0.587,0.186 2.822,8.658 2.821,8.648 12.7,8.838 4.991,0.096 9.981,0.232 14.97,0.384 0.277,0.008 0.543,0.333 0.914,1.791 -3.292,0.254 -6.583,0.507 -10.625,0.819 0,1.017 -0.506,2.817 0.083,4.126 3.329,7.397 6.919,14.676 10.423,21.995 1.031,2.155 2.656,4.218 2.997,6.476 1.058,7.014 1.912,14.088 2.282,21.168 0.207,3.969 1.939,5.232 5.499,5.366 17.317,0.653 15.053,3.001 17.072,-13.32 1.2,-9.698 2.571,-19.377 3.67,-29.086 0.375,-3.312 1.293,-4.894 5.144,-4.979 3.081,-0.069 6.389,-1.378 9.123,-2.957 4.451,-2.57 8.408,-5.982 12.772,-8.72 4.415,-2.769 6.341,-1.66 6.788,3.486 0.632,7.278 1.257,14.559 1.992,23.083 8.22,0 16.146,0.142 24.051,-0.18 0.983,-0.04 2.457,-2.444 2.688,-3.912 0.974,-6.242 1.553,-12.547 2.305,-18.824 0.58,-4.856 2.679,-5.904 6.849,-3.074 4.678,3.176 9.018,6.854 13.742,9.953 1.948,1.278 4.541,2.32 6.793,2.232 4.373,-0.17 5.543,1.412 5.875,5.677 0.938,12.059 2.614,24.06 3.731,36.109 0.414,4.481 2.119,6.792 6.844,6.348 2.152,-0.202 4.328,-0.17 6.494,-0.199 8.033,-0.107 7.988,-0.174 8.767,-7.896 0.643,-6.362 1.405,-12.727 2.512,-19.02 0.369,-2.096 1.998,-3.965 3.021,-5.953 3.717,-7.213 7.51,-14.388 11.039,-21.691 0.612,-1.262 0.088,-3.074 0.088,-4.086 -4.064,-0.433 -7.261,-0.772 -10.461,-1.113 l 0.1,-1.729 c 6.078,0 12.164,-0.2 18.234,0.049 8.227,0.338 8.207,0.483 9.67,-7.691 0.1,-0.553 0.631,-1.028 1.407,-2.23 -0.307,4.539 -0.651,8.23 -0.778,11.928 -0.123,3.645 -0.027,7.298 -0.027,10.825 5.656,2.195 6.945,5.486 6.412,11.501 -0.445,5.033 0.473,10.173 0.547,15.27 0.074,5.293 0.312,10.649 -0.373,15.866 -0.527,4.016 -0.764,7.626 2.131,10.705 7.478,7.958 9.439,17.377 8.343,27.991 -0.527,5.106 -1.207,10.485 2.596,15.161 3.203,3.943 5.996,8.242 8.703,12.552 0.713,1.136 0.578,2.893 0.588,4.366 0.051,7.953 0.026,15.906 0.026,23.86 0.441,0.003 0.88,0.007 1.324,0.01 0,-6.532 -0.01,-13.066 0.006,-19.598 0.004,-1.499 -0.17,-3.072 0.224,-4.472 0.391,-1.382 1.399,-2.588 2.137,-3.872 0.885,1.279 2.478,2.519 2.547,3.839 0.736,14.412 1.234,28.837 1.803,43.258 0.056,1.452 0.154,2.902 0.234,4.354 0.492,0.001 0.984,0.002 1.478,0.003 l 0,-48.552 c 0.87,-0.024 1.741,-0.049 2.61,-0.072 0,6.129 -0.174,12.265 0.035,18.387 0.488,14.366 1.17,28.723 1.746,43.085 0.084,2.095 0.012,4.196 0.012,6.294 0.406,0.067 0.814,0.132 1.222,0.198 0.307,-1.702 0.833,-3.397 0.881,-5.106 0.198,-6.992 -0.009,-14.004 0.409,-20.98 0.832,-13.889 2.048,-27.756 2.947,-41.644 0.203,-3.138 1.691,-3.808 4.476,-3.829 11.594,-0.086 9.491,0.021 9.754,-10.267 0.221,-8.65 0.42,-17.307 0.307,-25.956 -0.143,-10.724 -0.799,-21.443 -0.867,-32.167 -0.032,-5.081 0.703,-10.178 1.25,-15.251 0.484,-4.517 -0.16,-8.049 -5.887,-7.751 -2.336,-9.168 6.713,-8.971 9.535,-13.674 0.502,0.161 1.002,0.321 1.504,0.482 l 0,33.989 c 0.58,0.022 1.16,0.042 1.74,0.063 0.254,-4.519 0.571,-9.037 0.75,-13.559 0.233,-5.824 0.83,-11.688 0.401,-17.471 -0.516,-6.951 3.715,-9.853 8.933,-12.057 9.18,-3.877 11.053,-6.326 10.944,-16.22 -0.065,-5.639 1.033,-11.16 -2.784,-16.689 -1.962,-2.839 -0.013,-8.155 -0.623,-12.234 -0.4,-2.691 -1.793,-5.501 -3.496,-7.662 -1.92,-2.436 -4.412,-4.735 -7.142,-6.159 -6.994,-3.647 -6.996,-10.975 -9.616,-16.924 -0.228,-0.521 -0.072,-1.377 0.202,-1.929 4.246,-8.539 2.513,-17.684 2.09,-26.483 -0.596,-12.385 -9.86,-17.971 -22.094,-14.27 -3.262,0.988 -4.977,0.031 -5.758,-3.303 -0.793,-3.391 -1.934,-6.699 -2.908,-10.047 -1.385,-4.748 -3.971,-6.15 -8.811,-5.732 -4.15,0.357 -8.422,0.396 -12.535,-0.172 -5.209,-0.721 -8.219,0.771 -9.053,6.117 -1.529,9.818 -2.73,19.687 -4.091,29.532 -0.135,0.964 -0.125,2.493 -0.68,2.774 -6.647,3.356 -5.244,9.504 -5.32,15.06 -0.116,8.311 -0.032,16.623 -0.032,25.939 -5.83,-4.394 -10.09,-7.818 -9.593,-15.198 0.269,-4.014 -1.856,-8.361 -3.524,-12.293 -2.58,-6.082 -4.055,-12.175 -3.56,-18.86 0.429,-5.802 -0.243,-11.69 0.269,-17.479 0.441,-4.981 -1.521,-8.102 -5.303,-10.91 -5.205,-3.87 -9.943,-8.375 -15.234,-12.112 -4.262,-3.01 -6.658,-6.715 -7.262,-11.828 -0.678,-5.732 -4.105,-8.883 -9.498,-10.887 -10.142,-3.769 -20.039,-8.127 -31.293,-7.121 -1.461,0.131 -3.697,-1.015 -4.51,-2.263 -3.675,-5.641 -9.49,-10.262 -8.513,-18.25 0.357,-2.914 -1.725,-3.108 -4.415,-2.403 -2.239,0.588 -4.984,0.494 -7.167,-0.265 -2.798,-0.975 -4.093,-0.43 -4.706,2.31 -0.072,0.324 -0.264,0.664 -0.217,0.967 1.319,8.309 -5.709,12.49 -9.239,18.365 -0.528,0.877 -2.692,1.28 -3.992,1.106 -12.328,-1.643 -23.248,3.306 -34.106,7.709 -2.926,1.187 -5.685,5.23 -6.559,8.49 -1.507,5.619 -3.905,9.844 -8.798,13.168 -5.904,4.012 -11.475,8.574 -16.821,13.314 -1.719,1.522 -2.771,4.27 -3.225,6.629 -0.589,3.065 -0.556,6.326 -0.301,9.461 1.041,12.727 -0.961,24.798 -7.031,36.133 -0.678,1.266 -1.205,2.948 -0.983,4.303 1.201,7.325 -3.084,11.24 -9.425,15.109 0,-6.955 -0.034,-13.34 0.012,-19.724 0.035,-4.987 2.294,-11.833 -0.139,-14.611 -7.472,-8.538 -3.653,-18.722 -6.272,-27.772 -1.057,-3.653 -1.452,-7.494 -2.171,-11.246 -0.991,-5.172 -3.457,-6.598 -8.773,-6.108 -4.159,0.385 -8.437,0.34 -12.581,-0.176 -4.708,-0.584 -7.575,0.721 -9.099,5.233 -1.222,3.619 -2.563,7.213 -3.523,10.902 -0.868,3.326 -2.505,3.178 -5.525,2.742 -4.556,-0.658 -9.538,-1.019 -13.887,0.159 -6.564,1.779 -7.413,8.732 -8.442,13.995 -1.285,6.585 -0.524,13.581 -0.496,20.399 0.006,1.234 0.697,2.482 1.153,3.694 0.282,0.746 1.195,1.602 1.011,2.122 -1.688,4.778 -3.419,9.552 -5.458,14.187 -0.544,1.236 -2.077,2.173 -3.345,2.932 -9.116,5.451 -14.54,12.723 -12.506,24.019 0.244,1.348 -0.125,3.171 -0.908,4.281 -4.993,7.074 -3.192,14.822 -2.284,22.391 0.467,3.905 3.271,6.352 6.995,7.728 8.349,3.085 12.832,8.294 11.651,18.023 -0.857,7.053 -0.088,14.306 0.004,21.47 0.021,1.545 0.252,3.087 0.386,4.631 C -1.393,0.011 -0.696,0.006 0,0"/></g>
        <g transform="translate(460.4473,674.3125)" id="g4181"><path
          id="path4183"
          style="fill:#231f20;fill-opacity:1;fill-rule:evenodd;stroke:none"
          d="m 0,0 c 63.889,-58.222 95.699,-158.77 58.596,-254.681 -37.1,-95.899 -130.772,-155.889 -232.536,-149.837 -108.164,6.436 -192.522,84.063 -214.819,181.259 -23.347,101.782 23.965,192.884 85.372,237.685 -1.11,-10.82 -2.131,-21.513 -3.388,-32.178 -0.172,-1.452 -1.27,-3.012 -2.357,-4.108 -30.397,-30.624 -50.017,-67.066 -57.94,-109.448 -9.198,-49.202 -1.664,-95.991 22.11,-140.112 1.331,-2.47 2.145,-5.225 3.538,-7.654 9.561,-16.656 22.572,-30.584 36.246,-43.737 29.503,-28.384 64.563,-46.818 104.858,-54.168 63.638,-11.609 121.183,2.659 172.09,42.801 16.062,12.666 28.865,28.309 41.597,44.254 11.459,14.354 17.192,31.099 23.998,47.438 6.871,16.487 10.246,33.984 11.891,51.808 4.334,46.989 -5.891,90.544 -30.401,130.824 -0.978,1.608 -1.433,3.649 -1.707,5.549 -0.484,3.394 -2.003,5.397 -5.193,7.186 -5.092,2.856 -8.777,7.179 -9.26,13.642 -0.689,9.242 -1.799,18.45 -2.674,27.679 C -0.129,-4.21 0,-2.598 0,0"/></g>
        <g transform="translate(282.4473,115.7637)" id="g4185"><path
          id="path4187"
          style="fill:#231f20;fill-opacity:1;fill-rule:evenodd;stroke:none"
          d="m 0,0 -19.963,0 0,97.77 c -0.537,0.033 -1.072,0.066 -1.608,0.099 -6.49,-32.443 -12.98,-64.887 -19.539,-97.674 l -11.539,0 c -6.703,33.309 -13.486,67.012 -20.268,100.717 -0.254,-0.031 -0.507,-0.062 -0.76,-0.094 l 0,-100.58 -19.766,0 0,133.629 c 9.261,0 18.383,0.094 27.498,-0.123 1.111,-0.027 2.926,-1.58 3.158,-2.687 4.135,-19.774 8.038,-39.594 12.087,-59.383 0.945,-4.615 2.248,-9.156 4.273,-14.016 5.261,25.264 10.521,50.528 15.841,76.072 L 0,133.73 0,0 Z"/></g>
        <g transform="translate(56.9473,194.7734)" id="g4189"><path
          id="path4191"
          style="fill:#231f20;fill-opacity:1;fill-rule:evenodd;stroke:none"
          d="m 0,0 c 8.824,-0.605 17.676,-0.219 21.382,8.066 3.229,7.219 3.366,16.153 -1.868,23.006 C 14.661,37.428 7.032,35.986 0,35.584 L 0,0 Z m 0.127,-19.48 0,-40.35 c 16.912,-1.707 26.784,1.236 25.786,22.09 -0.559,11.664 -6.62,21.002 -25.786,18.26 m 31.936,10.851 c 8.238,-4.879 14.946,-11.267 16.204,-20.777 1.943,-14.701 2.588,-29.582 -9.488,-41.17 -5.735,-5.504 -12.659,-8.57 -20.767,-8.563 -13.554,0.012 -27.107,0.002 -40.939,0.002 l 0,133.979 c 11.667,0 23.283,0.398 34.852,-0.164 C 17.999,54.385 24.09,52.764 29.994,51.104 37.348,49.035 41.101,43.229 43.939,36.475 47.822,27.234 47.345,17.766 45.42,8.428 43.88,0.957 38.824,-4.521 32.063,-8.629"/></g>
        <g transform="translate(315.7676,195.6172)" id="g4193"><path
          id="path4195"
          style="fill:#231f20;fill-opacity:1;fill-rule:evenodd;stroke:none"
          d="m 0,0 c 7.76,-2.785 16.756,0.754 20.047,4.791 4.965,6.092 3.221,21.094 0.305,24.898 C 16.672,34.49 9.393,36.785 0,33.848 L 0,0 Z m 0.23,-19.553 0,-41.427 c 4.413,0 8.594,-0.448 12.637,0.117 4.633,0.646 8.869,2.365 10.938,7.386 3.433,8.329 3.488,16.754 -0.209,24.711 -1.455,3.135 -5.059,6.174 -8.36,7.33 -4.496,1.575 -9.64,1.307 -15.006,1.883 m 32.598,9.395 c 7.86,-4.326 14.457,-10.988 15.572,-20.971 1.629,-14.586 2.196,-29.31 -9.847,-40.642 -5.516,-5.19 -12.196,-8.167 -19.918,-8.194 -13.651,-0.051 -27.303,-0.014 -41.391,-0.014 l 0,133.69 c 0.938,0.117 2.047,0.394 3.149,0.373 C -5.334,53.789 9.092,54.623 23.168,52.789 36.732,51.021 43.555,41.686 46.125,27.898 47.939,18.174 46.469,9.176 42.51,0.695 40.543,-3.516 36.127,-6.584 32.828,-10.158"/></g>
        <g transform="translate(457.6797,230.9551)" id="g4197"><path
          id="path4199"
          style="fill:#231f20;fill-opacity:1;fill-rule:evenodd;stroke:none"
          d="m 0,0 c 0,-10.965 -0.098,-20.918 0.025,-30.869 0.145,-11.965 -2.283,-10.465 11.086,-10.406 7.086,0.031 11.657,3.738 12.811,10.738 0.902,5.475 1.392,11.183 0.883,16.678 C 24.187,-7.209 21.254,-1.658 13.33,-1.076 9.111,-0.766 4.895,-0.396 0,0 m -22.672,18.658 c 14.102,0 27.984,0.959 41.678,-0.24 17.195,-1.506 27.941,-13.356 29.049,-31.047 0.617,-9.836 1.156,-19.672 -3.166,-28.779 -1.836,-3.869 -4.766,-7.547 -8.043,-10.313 -3.26,-2.75 -4.092,-5.068 -2.756,-9.078 5.127,-15.396 9.959,-30.89 14.898,-46.351 0.797,-2.498 1.569,-5.006 2.555,-8.159 -7.74,0 -14.545,-0.134 -21.336,0.137 -1.09,0.045 -2.703,1.738 -3.066,2.967 -4.823,16.353 -9.426,32.773 -14.233,49.131 -0.32,1.092 -1.691,2.293 -2.816,2.627 -1.533,0.453 -3.301,0.072 -4.963,0.131 -3.615,0.13 -5.268,-1.163 -5.213,-5.186 0.207,-15.15 -0.006,-30.307 0.146,-45.457 0.038,-3.791 -0.722,-5.037 -4.962,-4.537 -5.731,0.676 -11.598,0.168 -17.772,0.168 l 0,133.986 z"/></g>
        <g transform="translate(183.5244,680.0801)" id="g4201"><path
          id="path4203"
          style="fill:#231f20;fill-opacity:1;fill-rule:evenodd;stroke:none"
          d="m 0,0 c -1.971,7.315 -4.003,14.86 -6.4,23.755 8.985,4.545 18.963,10.126 29.363,14.757 35.992,16.022 73.829,22.165 112.979,18.873 46.393,-3.9 88.149,-20.267 124.996,-48.866 4.631,-3.596 4.35,-4.93 0.04,-8.289 -1.674,-1.303 -2.797,-4.048 -3.059,-6.266 -0.481,-4.081 -0.137,-8.259 -0.137,-12.779 C 175.849,45.367 90.237,51.583 0,0"/></g>
        <g transform="translate(158.7246,182.5195)" id="g4205"><path
          id="path4207"
          style="fill:#231f20;fill-opacity:1;fill-rule:evenodd;stroke:none"
          d="m 0,0 c 0,12.816 0.288,25.643 -0.219,38.439 -0.115,2.926 -2.313,6.579 -4.691,8.456 -7.054,5.568 -18.867,0.519 -18.994,-10.012 -0.295,-24.463 -0.318,-48.936 0.017,-73.399 0.129,-9.408 6.631,-13.144 12.934,-12.33 7.214,0.93 11.349,3.356 11.045,12.897 C -0.29,-23.977 0,-11.984 0,0 m -46.994,-0.111 c 0,11.658 -0.271,23.324 0.062,34.974 0.518,18.073 7.482,28.832 24.331,33.52 7.31,2.035 15.41,1.508 23.479,-0.75 9.906,-2.772 15.934,-8.817 19.89,-17.365 1.928,-4.168 3.027,-9.092 3.083,-13.692 0.295,-24.312 0.307,-48.633 0.084,-72.947 -0.171,-18.602 -13.723,-32.539 -32.786,-32.625 -10.845,-0.049 -20.796,1.469 -28.929,9.371 -6.237,6.059 -8.987,13.611 -9.151,22.041 -0.244,12.486 -0.063,24.98 -0.063,37.473"/></g>
        <g transform="translate(428.5176,249.2734)" id="g4209"><path
          id="path4211"
          style="fill:#231f20;fill-opacity:1;fill-rule:evenodd;stroke:none"
          d="m 0,0 0,-19.598 -37.586,0 0,-34.054 c 7.725,0 15.484,-0.241 23.219,0.091 4.455,0.192 6.025,-1.32 5.58,-5.687 -0.5,-4.887 1.105,-11.373 -1.467,-14.246 -2.232,-2.494 -9.012,-1.002 -13.783,-1.125 -4.322,-0.111 -8.652,-0.024 -13.385,-0.024 l 0,-39.002 15.598,0 c 6.992,0 13.992,0.165 20.972,-0.142 1.377,-0.061 3.741,-1.856 3.825,-2.986 0.404,-5.424 0.181,-10.895 0.181,-16.6 l -64.595,0 L -61.441,0 0,0 Z"/></g>
        <g transform="translate(576.5039,218.8535)" id="g4213"><path
          id="path4215"
          style="fill:#231f20;fill-opacity:1;fill-rule:evenodd;stroke:none"
          d="m 0,0 c -6.082,-0.762 -11.896,-1.486 -17.711,-2.215 -2.601,-0.326 -3.596,0.82 -4.426,3.377 -1.425,4.381 -2.851,8.863 -8.203,10.697 -7.33,2.512 -13.172,-1.853 -14.394,-8.588 -1.209,-6.658 0.818,-12.816 5.537,-17.494 6.908,-6.849 14.465,-13.041 21.519,-19.752 8.36,-7.955 16.705,-16.287 18.295,-28.349 2.266,-17.192 1.281,-31.723 -18.553,-39.926 -22.443,-9.283 -45.134,-0.928 -50.884,26.361 -0.334,1.592 -1.061,3.235 -0.873,4.764 0.166,1.348 1.181,3.508 2.129,3.687 5.294,1.008 10.681,1.534 16.041,2.206 3.322,0.416 4.117,-1.036 4.941,-4.352 1.17,-4.703 3.178,-9.85 6.463,-13.209 4.181,-4.277 9.449,-3.25 15.16,0.92 3.758,2.744 5.363,7.971 3.857,13.225 -2.337,8.142 -7.4,14.171 -13.906,19.597 -11.123,9.28 -23.39,17.768 -29.275,31.832 -6.28,15.012 -4.68,36.574 12.234,45.889 9.395,5.174 20.113,6.047 30.688,2.559 C -8.502,26.984 0.578,13.916 0,0"/></g>
        <g transform="translate(290.4775,647.1685)" id="g4217"><path
          id="path4219"
          style="fill:#231f20;fill-opacity:1;fill-rule:evenodd;stroke:none"
          d="m 0,0 c 0,4.824 -0.107,9.652 0.027,14.473 0.168,6.002 3.897,9.757 9.61,9.942 5.113,0.166 9.825,-3.603 10.01,-9.058 0.358,-10.462 0.409,-20.958 -0.019,-31.416 -0.236,-5.8 -5.019,-9.298 -10.579,-8.902 C 3.755,-24.583 0.132,-20.684 0,-14.972 -0.115,-9.983 -0.024,-4.991 -0.024,0 L 0,0 Z"/></g>
        <g transform="translate(439.1367,84.6504)" id="g4221"><path
          id="path4223"
          style="fill:#231f20;fill-opacity:1;fill-rule:evenodd;stroke:none"
          d="m 0,0 c 6.803,0 13.256,-0.055 19.705,0.045 1.25,0.019 2.522,0.549 3.725,0.996 3.072,1.143 6.047,2.66 5.009,6.646 -0.894,3.442 -3.398,5.344 -7.14,5.309 C 17.818,12.963 14.34,12.99 10.859,12.99 -1.824,12.99 -1.824,12.99 0,0 m 0.096,-5.008 c -0.598,-2.381 -1.428,-4.119 -1.379,-5.834 0.082,-2.924 -1.459,-7.49 2.808,-7.951 7.059,-0.764 14.293,-0.598 21.389,-0.01 2.984,0.248 7.09,1.207 6.981,5.881 -0.12,4.998 -3.028,7.861 -7.893,7.899 -7.287,0.056 -14.574,0.015 -21.906,0.015 m 29.31,2.721 c 5.545,-4.234 7.276,-8.611 5.637,-13.727 -2.242,-7.002 -8.559,-7.384 -14.125,-7.83 -7.779,-0.623 -15.647,-0.07 -23.473,-0.203 -3.185,-0.055 -3.949,1.432 -3.927,4.279 0.089,11.159 0.06,22.321 0.019,33.481 -0.01,2.408 0.248,4.387 3.375,4.267 9.084,-0.343 18.17,-0.818 27.258,-0.923 5.857,-0.069 8.476,-3.782 9.971,-8.436 1.236,-3.85 -1.045,-6.879 -3.84,-9.424 -0.336,-0.304 -0.494,-0.804 -0.895,-1.484"/></g>
        <g transform="translate(539.0117,97.6348)" id="g4225"><path
          id="path4227"
          style="fill:#231f20;fill-opacity:1;fill-rule:evenodd;stroke:none"
          d="m 0,0 0,-14.416 c 8.045,0.451 15.723,0.887 23.4,1.312 4.442,0.247 6.717,2.586 6.204,7.016 -0.489,4.229 -3.571,5.951 -7.424,6.041 C 14.912,0.121 7.639,0 0,0 M -5.381,5.453 C 5.713,4.932 16.115,4.711 26.465,3.844 c 5.209,-0.438 8.09,-4.401 8.187,-9.481 0.153,-7.892 -1.713,-10.486 -8.867,-12.355 -0.902,-0.237 -1.785,-0.541 -3.025,-0.92 4.187,-5.93 8.156,-11.551 12.533,-17.752 -3.717,-0.262 -6.203,-1.201 -8.24,2.527 -2.606,4.772 -6.174,9.041 -9.549,13.356 -0.75,0.963 -2.397,1.65 -3.666,1.709 -4.473,0.203 -8.961,0.078 -14.182,0.078 0,-4.799 -0.084,-9.385 0.03,-13.967 0.082,-3.326 -1.248,-4.607 -5.067,-3.605 l 0,42.019 z"/></g>
        <g transform="translate(502.9355,97.7852)" id="g4229"><path
          id="path4231"
          style="fill:#231f20;fill-opacity:1;fill-rule:evenodd;stroke:none"
          d="m 0,0 c -3.828,-7.445 -7.141,-13.887 -10.867,-21.135 l 21.105,0 C 6.764,-13.965 3.803,-7.852 0,0 m -24.457,-36.15 c 3.59,7.029 6.865,13.533 10.221,19.996 3.144,6.056 6.357,12.076 9.568,18.099 2.127,3.991 6.238,4.278 8.57,0.348 2.996,-5.049 5.647,-10.305 8.369,-15.512 3.987,-7.629 7.907,-15.291 11.94,-23.103 -4.084,-1.856 -6.395,-0.506 -7.342,2.84 -1.748,6.173 -5.607,8.214 -11.824,7.437 -4.096,-0.512 -8.334,-0.398 -12.459,-0.017 -4.891,0.449 -7.736,-1.071 -8.895,-6.114 -0.836,-3.652 -3.045,-6.117 -8.148,-3.974"/></g>
      </g>
    </g>
  </g>
</svg>
